<svg xmlns="http://www.w3.org/2000/svg" version="1.1" xmlns:xlink="http://www.w3.org/1999/xlink" xmlnsSvgjs="http://svgjs.dev/svgjs" width="1000" height="1000" viewBox="0 0 1000 1000"><g transform="matrix(1,0,0,1,0,0.0006287223284857646)"><svg viewBox="0 0 280 280" data-background-color="#edbbba" preserveAspectRatio="xMidYMid meet" height="1000" width="1000" xmlns="http://www.w3.org/2000/svg" xmlnsXlink="http://www.w3.org/1999/xlink"><g id="tight-bounds" transform="matrix(1,0,0,1,0,-0.0001760422519794247)"><svg viewBox="0 0 280 280" height="280" width="280"><g><svg viewBox="0 0 280 280" height="280" width="280"><g><svg viewBox="0 0 280 280" height="280" width="280"><g id="textblocktransform"><svg viewBox="0 0 280 280" height="280" width="280" id="textblock"><g><svg viewBox="0 0 280 280" height="280" width="280"><g transform="matrix(1,0,0,1,74.05046074282114,74.00336708925556)"><svg viewBox="0 0 131.8990785143577 131.99326582148888" height="131.99326582148888" width="131.8990785143577"><g><svg xmlns="http://www.w3.org/2000/svg" xmlnsXlink="http://www.w3.org/1999/xlink" version="1.1" x="0" y="0" viewBox="2.1 1.8999999999999986 507.79999999999995 508.16261295454" enable-background="new 0 0 512 512" xmlSpace="preserve" height="131.99326582148888" width="131.8990785143577" class="icon-kg-0" data-fill-palette-color="accent" id="kg-0"><g fill="#374151" data-fill-palette-color="accent"><path d="M509.9 89.3c0-7.8-6.3-14.1-14.1-14.1-7.8 0-14.1 6.3-14.1 14.1C481.7 213.8 380.4 315 256 315S30.3 213.8 30.3 89.3c0-7.8-6.3-14.1-14.1-14.1S2.1 81.6 2.1 89.3c0 135.7 107.1 246.9 241.2 253.6v3.3c-6.3-2.5-13.1-3.8-20.1-3.8-30.3 0-55 24.7-55 55 0 40.7 66.8 98.1 80.2 109.2l0.5 0.4c5 4.1 12.1 4.1 17.1-0.1l0.5-0.4c13.4-11.2 80.1-69.4 80.1-109.1 0-30.3-24.7-55-55-55-7 0-13.8 1.4-20.1 3.8v-3.5C404.3 334.6 509.9 224.1 509.9 89.3zM288.9 370.7c16-1.6 29.5 11 29.5 26.6 0 17.7-33.2 54.6-61 79.7-27.8-24.7-60.9-61.4-60.9-79.7 0-15.7 13.5-28.2 29.5-26.6 8.4 0.8 15.7 6 20.3 13l0 0c5.3 8 17 8 22.3 0C273.2 376.7 280.5 371.5 288.9 370.7z" fill="#374151" data-fill-palette-color="accent"></path><path d="M166.3 228.6L166.3 228.6c5.3 4.3 12.9 4.3 18.1-0.1 13.6-11.4 57.9-51 57.9-80.1 0-23.7-19.2-42.9-42.9-42.9-3.4 0-6.7 0.5-10 1.3V93.5c19-6 32.8-23.8 32.8-44.7 0-25.8-21-46.9-46.9-46.9-25.8 0-46.9 21-46.9 46.9 0 20.9 13.8 38.7 32.8 44.7v13.3c-3.2-0.8-6.6-1.3-10-1.3-23.7 0-42.9 19.2-42.9 42.9C108.3 178.2 152.7 217.3 166.3 228.6zM175.3 30.2c10.3 0 18.6 8.4 18.6 18.6 0 10.3-8.4 18.7-18.6 18.7-10.3 0-18.7-8.4-18.7-18.7C156.7 38.6 165 30.2 175.3 30.2zM151.2 133.7c5 0 9.6 2.5 12.3 6.7l0 0c5.6 8.5 18 8.5 23.6 0l0 0c2.7-4.2 7.3-6.7 12.3-6.7 8.1 0 14.7 6.6 14.7 14.7 0 9.5-18.7 32-38.9 50.5-20-18.3-38.7-40.8-38.7-50.5C136.5 140.3 143.1 133.7 151.2 133.7z" fill="#374151" data-fill-palette-color="accent"></path><path d="M330.6 228.6c5.3 4.3 12.9 4.3 18.1-0.1l0 0c13.6-11.4 57.9-51 57.9-80.1 0-23.7-19.2-42.9-42.9-42.9-3.4 0-6.7 0.5-10 1.3V93.5c19-6 32.8-23.8 32.8-44.7 0-25.8-21-46.9-46.9-46.9-25.8 0-46.9 21-46.9 46.9 0 20.9 13.8 38.7 32.8 44.7v13.3c-3.2-0.8-6.6-1.3-10-1.3-23.7 0-42.9 19.2-42.9 42.9C272.6 178.2 316.9 217.3 330.6 228.6zM339.6 30.2c10.3 0 18.6 8.4 18.6 18.6 0 10.3-8.4 18.7-18.6 18.7-10.3 0-18.7-8.4-18.7-18.7C320.9 38.6 329.3 30.2 339.6 30.2zM315.5 133.7c5 0 9.6 2.5 12.3 6.7l0 0c5.6 8.5 18 8.5 23.6 0l0 0c2.7-4.2 7.3-6.7 12.3-6.7 8.1 0 14.7 6.6 14.7 14.7 0 9.5-18.7 32-38.8 50.5-20-18.3-38.7-40.8-38.7-50.5C300.8 140.3 307.4 133.7 315.5 133.7z" fill="#374151" data-fill-palette-color="accent"></path></g></svg></g></svg></g><g><path d="M34.17 92.266l-1.666 4.714c-1.335 0.449-2.612 0.876-3.831 1.281-1.22 0.405-2.433 0.801-3.64 1.189-1.213 0.386-2.437 0.772-3.672 1.158-1.243 0.39-2.53 0.806-3.863 1.248v0c0.221 0.418 0.413 0.815 0.578 1.193 0.173 0.373 0.34 0.772 0.501 1.197v0c1.795 0.634 3.482 1.223 5.061 1.767 1.573 0.542 3.256 1.13 5.051 1.764v0l-1.496 4.232-25.335-8.954 1.496-4.232 9.474 3.349c0.208 0.073 0.403 0.164 0.585 0.27 0.19 0.103 0.39 0.191 0.597 0.264v0c-0.124-0.171-0.227-0.339-0.311-0.503-0.086-0.158-0.202-0.33-0.349-0.516v0c-0.979-2.202-2.04-4.369-3.185-6.503-1.145-2.133-2.218-4.308-3.219-6.525v0l1.716-4.855c1.203 2.388 2.422 4.763 3.655 7.125 1.234 2.363 2.452 4.738 3.656 7.126v0c1.604-0.531 3.15-1.037 4.638-1.517 1.496-0.484 2.981-0.958 4.455-1.422 1.472-0.457 2.96-0.92 4.464-1.387 1.496-0.463 3.042-0.951 4.64-1.463z" fill="#374151" data-fill-palette-color="primary"></path><path d="M34.086 77.354v0c-0.904-0.642-1.635-1.423-2.194-2.345-0.555-0.926-0.914-1.903-1.078-2.928-0.164-1.026-0.133-2.073 0.092-3.142 0.226-1.068 0.674-2.073 1.343-3.015v0c0.673-0.948 1.476-1.704 2.411-2.27 0.934-0.565 1.909-0.934 2.924-1.106 1.015-0.172 2.044-0.138 3.085 0.102 1.042 0.24 2.015 0.681 2.919 1.324v0c0.909 0.646 1.649 1.421 2.219 2.325 0.57 0.905 0.947 1.868 1.13 2.891 0.183 1.023 0.159 2.066-0.073 3.131-0.226 1.068-0.681 2.084-1.366 3.048v0c-0.657 0.926-1.437 1.683-2.339 2.272-0.901 0.589-1.861 0.976-2.878 1.163-1.012 0.191-2.052 0.173-3.12-0.053-1.064-0.232-2.089-0.697-3.075-1.397zM35.94 74.812v0c0.566 0.402 1.17 0.671 1.811 0.807 0.646 0.14 1.286 0.156 1.919 0.048 0.643-0.109 1.241-0.335 1.797-0.678 0.564-0.345 1.046-0.798 1.444-1.358v0c0.402-0.566 0.675-1.175 0.818-1.828 0.153-0.653 0.173-1.299 0.06-1.936-0.103-0.639-0.326-1.243-0.666-1.812-0.332-0.571-0.78-1.058-1.347-1.461v0c-0.566-0.402-1.179-0.67-1.839-0.802-0.661-0.142-1.31-0.156-1.948-0.043-0.633 0.107-1.236 0.339-1.808 0.694-0.568 0.35-1.053 0.808-1.455 1.375v0c-0.398 0.561-0.667 1.165-0.807 1.811-0.136 0.641-0.152 1.281-0.048 1.919 0.107 0.633 0.339 1.236 0.694 1.808 0.35 0.568 0.808 1.053 1.375 1.456z" fill="#374151" data-fill-palette-color="primary"></path><path d="M57.571 39.022l2.158 3.53c-0.523 0.458-0.964 0.968-1.323 1.531-0.359 0.563-0.609 1.15-0.749 1.761-0.136 0.616-0.131 1.229 0.013 1.839 0.139 0.615 0.444 1.192 0.915 1.73v0l4.883 5.578-2.367 2.072-10.203-11.654 2.089-1.828c0.546 0.543 1.039 1.039 1.477 1.49 0.444 0.446 0.888 0.887 1.332 1.324v0c-0.199-0.714-0.282-1.448-0.251-2.204 0.036-0.75 0.154-1.457 0.354-2.121 0.201-0.673 0.447-1.274 0.737-1.804 0.286-0.535 0.598-0.95 0.935-1.244z" fill="#374151" data-fill-palette-color="primary"></path><path d="M85.906 22.274l7.48 13.94-2.357 1.265-2.359-3.612c0.097 1.381-0.113 2.672-0.628 3.873-0.521 1.204-1.476 2.179-2.865 2.924v0c-1.395 0.749-2.703 0.966-3.925 0.652-1.213-0.312-2.17-1.064-2.872-2.257v0l-5.31-9.897 2.781-1.492 4.642 8.652c0.404 0.655 0.958 1.1 1.662 1.337 0.703 0.237 1.542 0.139 2.515-0.293v0c0.653-0.351 1.189-0.786 1.607-1.306 0.424-0.523 0.725-1.086 0.902-1.689 0.186-0.6 0.241-1.232 0.164-1.896-0.073-0.658-0.284-1.314-0.635-1.967v0l-3.61-6.727z" fill="#374151" data-fill-palette-color="primary"></path><path d="M130.255 26.197l-4.894 1.022c-1.077-0.908-2.104-1.778-3.083-2.611-0.979-0.833-1.947-1.664-2.905-2.495-0.959-0.837-1.924-1.683-2.894-2.538-0.978-0.86-2.002-1.745-3.072-2.655v0c-0.243 0.405-0.483 0.776-0.72 1.112-0.229 0.341-0.483 0.691-0.763 1.05v0c0.389 1.863 0.76 3.611 1.115 5.243 0.353 1.625 0.724 3.37 1.112 5.233v0l-4.394 0.917-5.489-26.304 4.394-0.917 2.053 9.837c0.045 0.216 0.069 0.429 0.072 0.64 0.011 0.216 0.039 0.432 0.084 0.648v0c0.082-0.195 0.172-0.37 0.269-0.527 0.09-0.155 0.177-0.344 0.26-0.566v0c1.375-1.979 2.677-4.011 3.907-6.096 1.23-2.085 2.532-4.131 3.908-6.138v0l5.041-1.052c-1.417 2.268-2.815 4.542-4.195 6.822-1.38 2.28-2.778 4.554-4.196 6.822v0c1.286 1.096 2.521 2.155 3.703 3.178 1.19 1.028 2.366 2.051 3.527 3.071 1.155 1.021 2.322 2.054 3.502 3.097 1.172 1.038 2.391 2.107 3.658 3.207z" fill="#374151" data-fill-palette-color="primary"></path><path d="M142.946 18.58v0c0.082-1.132 0.373-2.183 0.873-3.151 0.506-0.968 1.156-1.801 1.95-2.5 0.794-0.699 1.694-1.233 2.698-1.602 1.005-0.375 2.064-0.523 3.176-0.441v0c0.739 0.054 1.409 0.196 2.008 0.427 0.606 0.232 1.119 0.497 1.54 0.795 0.426 0.306 0.762 0.615 1.007 0.927 0.251 0.32 0.419 0.593 0.503 0.821v0l0.308-2.168 3.028 0.221-1.125 15.448-3.178-0.231 0.143-1.959c-0.141 0.191-0.355 0.409-0.641 0.657-0.293 0.253-0.665 0.481-1.114 0.682-0.443 0.202-0.968 0.368-1.573 0.498-0.606 0.13-1.291 0.167-2.058 0.111v0c-1.179-0.086-2.252-0.382-3.22-0.887-0.968-0.499-1.782-1.141-2.441-1.926-0.66-0.778-1.158-1.661-1.495-2.65-0.336-0.989-0.466-2.013-0.389-3.072zM146.138 18.621v0c-0.052 0.719 0.029 1.395 0.244 2.027 0.208 0.631 0.52 1.186 0.933 1.665 0.414 0.479 0.918 0.867 1.513 1.165 0.601 0.305 1.267 0.484 2 0.538v0c0.739 0.054 1.435-0.026 2.086-0.24 0.645-0.208 1.214-0.524 1.707-0.951 0.486-0.42 0.874-0.924 1.165-1.512 0.29-0.582 0.461-1.232 0.514-1.952v0c0.052-0.713-0.023-1.381-0.226-2.005-0.203-0.617-0.514-1.166-0.935-1.645-0.428-0.473-0.945-0.862-1.552-1.168-0.614-0.306-1.291-0.486-2.03-0.54v0c-0.733-0.053-1.418 0.027-2.057 0.242-0.632 0.215-1.187 0.526-1.665 0.934-0.479 0.414-0.867 0.911-1.164 1.492-0.304 0.587-0.482 1.237-0.533 1.95z" fill="#374151" data-fill-palette-color="primary"></path><path d="M175.25 31.279l9.525-27.173 2.969 1.041-5.637 16.082c0.923-0.979 1.976-1.661 3.159-2.046 1.183-0.385 2.513-0.333 3.99 0.157v0c1.494 0.503 2.549 1.318 3.165 2.447 0.61 1.127 0.711 2.355 0.302 3.684v0l-3.725 10.627-3.016-1.057 3.247-9.266c0.219-0.766 0.187-1.492-0.096-2.178-0.283-0.687-0.918-1.228-1.905-1.623v0c-0.7-0.245-1.381-0.35-2.045-0.314-0.672 0.04-1.291 0.199-1.855 0.475-0.568 0.268-1.078 0.652-1.529 1.152-0.449 0.494-0.796 1.09-1.041 1.79v0l-2.539 7.243z" fill="#374151" data-fill-palette-color="primary"></path><path d="M207.78 48.201v0c0.376-3.102 0.809-6.129 1.299-9.079 0.496-2.947 0.951-5.958 1.365-9.034v0l2.834 1.961c-0.269 1.95-0.502 3.531-0.699 4.743-0.191 1.216-0.366 2.22-0.524 3.012-0.158 0.792-0.31 1.446-0.457 1.962-0.146 0.516-0.296 1.038-0.449 1.566v0c0.456-0.318 0.905-0.633 1.347-0.944 0.443-0.311 1.001-0.684 1.676-1.119 0.675-0.435 1.547-0.956 2.617-1.564 1.065-0.612 2.465-1.385 4.201-2.32v0l2.834 1.961c-2.732 1.472-5.406 2.948-8.022 4.427-2.616 1.48-5.29 2.955-8.022 4.428z" fill="#374151" data-fill-palette-color="primary"></path><path d="M241.302 47.155v0c0.427-0.413 0.933-0.601 1.518-0.563 0.585 0.038 1.049 0.235 1.393 0.59v0c0.344 0.355 0.52 0.821 0.53 1.397 0.005 0.572-0.207 1.064-0.634 1.478v0c-0.427 0.413-0.922 0.604-1.483 0.571-0.571-0.033-1.028-0.227-1.372-0.583v0c-0.344-0.355-0.527-0.824-0.551-1.405-0.028-0.577 0.171-1.072 0.599-1.485zM239.512 53.835l-11.133 10.77-2.187-2.261 11.133-10.77z" fill="#374151" data-fill-palette-color="primary"></path><path d="M264.783 64.839l-23.799 16.209-1.771-2.601 23.799-16.208z" fill="#374151" data-fill-palette-color="primary"></path><path d="M255.637 92.463v0c1.059-0.411 2.132-0.598 3.221-0.561 1.091 0.043 2.123 0.273 3.094 0.691 0.972 0.418 1.839 1.002 2.603 1.753 0.77 0.747 1.356 1.641 1.76 2.681v0c0.268 0.691 0.426 1.357 0.474 1.997 0.05 0.647 0.03 1.224-0.059 1.732-0.094 0.516-0.229 0.952-0.407 1.307-0.181 0.364-0.356 0.633-0.525 0.806v0l2.09-0.65 1.098 2.831-14.441 5.6-1.152-2.97 1.831-0.71c-0.233-0.046-0.522-0.145-0.868-0.298-0.354-0.156-0.719-0.395-1.094-0.715-0.373-0.314-0.747-0.717-1.124-1.208-0.377-0.491-0.704-1.095-0.982-1.811v0c-0.427-1.102-0.62-2.199-0.577-3.29 0.036-1.089 0.268-2.099 0.694-3.031 0.42-0.93 1.005-1.758 1.755-2.486 0.749-0.728 1.619-1.283 2.609-1.668zM256.967 95.365v0c-0.673 0.261-1.248 0.624-1.727 1.089-0.481 0.459-0.849 0.978-1.105 1.557-0.255 0.579-0.39 1.201-0.405 1.865-0.018 0.673 0.105 1.353 0.371 2.038v0c0.268 0.691 0.638 1.286 1.111 1.783 0.464 0.494 0.994 0.872 1.59 1.135 0.588 0.259 1.21 0.394 1.865 0.405 0.65 0.013 1.311-0.111 1.984-0.372v0c0.666-0.258 1.238-0.613 1.715-1.063 0.471-0.448 0.833-0.964 1.086-1.55 0.244-0.589 0.374-1.223 0.391-1.903 0.013-0.686-0.114-1.374-0.382-2.065v0c-0.266-0.685-0.632-1.27-1.1-1.755-0.465-0.479-0.984-0.847-1.557-1.105-0.579-0.255-1.195-0.393-1.847-0.412-0.661-0.023-1.324 0.095-1.99 0.353z" fill="#374151" data-fill-palette-color="primary"></path><path d="M19.643 204.29l-1.723-4.843c0.78-1.214 1.525-2.379 2.233-3.496 0.704-1.109 1.415-2.209 2.133-3.3 0.711-1.09 1.437-2.188 2.177-3.295 0.732-1.111 1.487-2.277 2.265-3.497v0c-0.443-0.19-0.855-0.38-1.235-0.571-0.371-0.187-0.762-0.399-1.172-0.635v0c-1.837 0.654-3.559 1.274-5.166 1.859-1.613 0.588-3.338 1.209-5.175 1.863v0l-1.542-4.332 25.985-9.248 1.542 4.333-9.712 3.456c-0.22 0.078-0.437 0.138-0.65 0.178-0.215 0.034-0.429 0.089-0.643 0.165v0c0.206 0.061 0.397 0.128 0.571 0.201 0.175 0.073 0.378 0.135 0.61 0.188v0c2.207 1.122 4.457 2.164 6.749 3.127 2.293 0.964 4.555 2.002 6.787 3.115v0l1.774 4.984c-2.507-1.128-5.017-2.234-7.53-3.318-2.506-1.086-5.013-2.193-7.52-3.322v0c-0.932 1.466-1.835 2.872-2.71 4.218-0.881 1.349-1.761 2.683-2.638 4.002-0.875 1.325-1.759 2.657-2.651 3.996-0.898 1.341-1.818 2.731-2.759 4.172z" fill="#374151" data-fill-palette-color="primary"></path><path d="M34.225 213.443v0c0.929-0.664 1.935-1.111 3.017-1.343 1.086-0.226 2.153-0.249 3.201-0.069 1.051 0.185 2.055 0.568 3.012 1.149 0.962 0.577 1.788 1.349 2.479 2.316v0c0.695 0.973 1.159 2.008 1.393 3.106 0.235 1.088 0.266 2.154 0.091 3.197-0.174 1.044-0.552 2.032-1.133 2.964-0.582 0.932-1.337 1.731-2.267 2.394v0c-0.929 0.664-1.927 1.117-2.992 1.361-1.071 0.248-2.133 0.288-3.188 0.122-1.054-0.166-2.061-0.535-3.019-1.107-0.957-0.581-1.788-1.366-2.494-2.355v0c-0.679-0.951-1.152-1.964-1.418-3.038-0.266-1.074-0.322-2.134-0.166-3.18 0.159-1.041 0.525-2.041 1.096-2.999 0.581-0.957 1.377-1.796 2.388-2.518zM36.067 216.092v0c-0.576 0.411-1.039 0.906-1.39 1.484-0.35 0.578-0.58 1.194-0.688 1.846-0.105 0.658-0.086 1.317 0.058 1.978 0.144 0.661 0.421 1.279 0.832 1.855v0c0.411 0.576 0.91 1.045 1.497 1.406 0.586 0.361 1.205 0.596 1.857 0.705 0.656 0.114 1.316 0.102 1.981-0.036 0.669-0.133 1.291-0.405 1.868-0.816v0c0.582-0.415 1.049-0.922 1.402-1.519 0.357-0.592 0.588-1.216 0.693-1.873 0.109-0.652 0.087-1.314-0.064-1.986-0.151-0.672-0.433-1.296-0.844-1.872v0c-0.411-0.576-0.906-1.039-1.485-1.39-0.578-0.35-1.196-0.582-1.851-0.696-0.652-0.109-1.314-0.087-1.986 0.064-0.672 0.151-1.298 0.435-1.88 0.85z" fill="#374151" data-fill-palette-color="primary"></path><path d="M68.765 239.514l-3.297 2.682c-0.534-0.465-1.111-0.845-1.732-1.139-0.626-0.289-1.26-0.461-1.903-0.516-0.638-0.051-1.259 0.036-1.864 0.262-0.604 0.235-1.148 0.63-1.63 1.184v0l-4.999 5.73-2.438-2.127 10.451-11.982 2.152 1.877c-0.483 0.625-0.922 1.194-1.318 1.709-0.391 0.51-0.778 1.019-1.16 1.527v0c0.694-0.298 1.427-0.483 2.199-0.555 0.767-0.067 1.505-0.044 2.213 0.07 0.708 0.113 1.352 0.279 1.93 0.5 0.588 0.22 1.053 0.48 1.396 0.778z" fill="#374151" data-fill-palette-color="primary"></path><path d="M93.647 254.77l-7.667 14.317-2.42-1.296 1.745-4.066c-1.121 0.862-2.345 1.415-3.673 1.658-1.319 0.241-2.693-0.022-4.124-0.787v0c-1.431-0.766-2.358-1.759-2.78-2.978-0.429-1.222-0.328-2.471 0.302-3.748v0l5.439-10.157 2.844 1.523-4.758 8.885c-0.325 0.72-0.389 1.447-0.191 2.182 0.194 0.741 0.754 1.4 1.679 1.979v0c0.671 0.359 1.35 0.571 2.035 0.635 0.682 0.07 1.333 0.009 1.95-0.183 0.615-0.186 1.184-0.499 1.708-0.938 0.523-0.44 0.965-0.995 1.324-1.666v0l3.699-6.907z" fill="#374151" data-fill-palette-color="primary"></path><path d="M127.613 279.962l-5.033-1.042c-0.632-1.297-1.241-2.539-1.827-3.725-0.581-1.178-1.152-2.357-1.713-3.536-0.562-1.174-1.123-2.364-1.685-3.572-0.569-1.202-1.173-2.453-1.812-3.752v0c-0.392 0.28-0.769 0.533-1.129 0.759-0.353 0.22-0.737 0.444-1.152 0.672v0c-0.396 1.91-0.76 3.703-1.094 5.38-0.335 1.684-0.7 3.48-1.096 5.39v0l-4.503-0.933 5.594-27.008 4.503 0.932-2.091 10.095c-0.047 0.229-0.109 0.445-0.185 0.648-0.083 0.201-0.147 0.413-0.193 0.635v0c0.159-0.144 0.316-0.272 0.468-0.384 0.153-0.112 0.312-0.253 0.477-0.423v0c2.105-1.303 4.164-2.684 6.178-4.143 2.014-1.459 4.076-2.853 6.187-4.182v0l5.18 1.073c-2.266 1.556-4.515 3.127-6.746 4.71-2.23 1.578-4.478 3.145-6.745 4.702v0c0.769 1.558 1.501 3.06 2.198 4.506 0.695 1.454 1.378 2.898 2.049 4.333 0.678 1.436 1.357 2.883 2.037 4.341 0.679 1.464 1.39 2.972 2.133 4.524z" fill="#374151" data-fill-palette-color="primary"></path><path d="M143.022 272.444v0c-0.087-1.166 0.051-2.278 0.414-3.336 0.37-1.052 0.903-1.993 1.597-2.822 0.702-0.829 1.535-1.508 2.501-2.036 0.965-0.534 2.017-0.844 3.155-0.929v0c0.759-0.057 1.463-0.012 2.11 0.133 0.647 0.139 1.207 0.332 1.681 0.578 0.48 0.245 0.869 0.508 1.164 0.787 0.303 0.285 0.512 0.538 0.629 0.757v0l-0.017-2.249 3.117-0.234 1.185 15.856-3.267 0.244-0.15-2.008c-0.112 0.209-0.293 0.464-0.546 0.764-0.259 0.301-0.602 0.588-1.03 0.861-0.422 0.273-0.929 0.518-1.523 0.737-0.593 0.225-1.282 0.367-2.067 0.426v0c-1.212 0.091-2.348-0.045-3.407-0.409-1.059-0.37-1.983-0.9-2.771-1.591-0.788-0.691-1.429-1.514-1.923-2.468-0.487-0.955-0.771-1.975-0.852-3.061zM146.265 272.011v0c0.055 0.733 0.239 1.405 0.553 2.018 0.314 0.613 0.714 1.129 1.201 1.548 0.493 0.419 1.067 0.737 1.719 0.956 0.646 0.22 1.349 0.301 2.108 0.244v0c0.759-0.057 1.452-0.243 2.078-0.557 0.626-0.315 1.155-0.723 1.587-1.224 0.431-0.501 0.75-1.071 0.957-1.709 0.207-0.638 0.283-1.324 0.228-2.056v0c-0.055-0.733-0.232-1.399-0.531-2-0.299-0.601-0.699-1.113-1.2-1.538-0.5-0.418-1.083-0.736-1.75-0.954-0.666-0.218-1.379-0.299-2.138-0.242v0c-0.759 0.057-1.442 0.242-2.048 0.555-0.613 0.314-1.132 0.714-1.558 1.201-0.419 0.493-0.738 1.06-0.958 1.7-0.22 0.639-0.303 1.325-0.248 2.058z" fill="#374151" data-fill-palette-color="primary"></path><path d="M180.565 274.211l-9.831-27.873 3.052-1.076 5.818 16.497c0.103-1.375 0.504-2.597 1.204-3.665 0.7-1.068 1.798-1.881 3.295-2.437v0c1.522-0.565 2.89-0.591 4.105-0.078 1.215 0.513 2.084 1.432 2.608 2.756v0l3.846 10.904-3.09 1.09-3.352-9.506c-0.315-0.753-0.806-1.313-1.474-1.679-0.668-0.367-1.524-0.394-2.568-0.082v0c-0.718 0.253-1.332 0.611-1.842 1.074-0.51 0.463-0.903 0.984-1.18 1.564-0.284 0.582-0.446 1.216-0.487 1.903-0.035 0.685 0.075 1.387 0.328 2.105v0l2.62 7.427z" fill="#374151" data-fill-palette-color="primary"></path><path d="M218.006 256.792v0c-2.849-1.477-5.603-2.983-8.264-4.517-2.655-1.538-5.388-3.059-8.198-4.563v0l2.904-2.018c1.781 0.959 3.22 1.748 4.318 2.367 1.096 0.629 1.999 1.161 2.707 1.596 0.703 0.438 1.275 0.822 1.715 1.151 0.445 0.325 0.893 0.652 1.342 0.983v0c-0.137-0.548-0.277-1.089-0.421-1.624-0.138-0.538-0.296-1.21-0.472-2.014-0.171-0.808-0.361-1.836-0.569-3.082-0.198-1.245-0.436-2.869-0.714-4.872v0l2.904-2.019c0.43 3.158 0.887 6.261 1.37 9.309 0.483 3.048 0.943 6.149 1.378 9.303z" fill="#374151" data-fill-palette-color="primary"></path><path d="M221.413 224.277v0c-0.442-0.427-0.654-0.938-0.635-1.534 0.018-0.605 0.204-1.09 0.556-1.455v0c0.353-0.365 0.824-0.56 1.414-0.583 0.59-0.034 1.106 0.163 1.548 0.59v0c0.437 0.422 0.646 0.927 0.628 1.513-0.019 0.577-0.204 1.047-0.557 1.412v0c-0.353 0.365-0.824 0.574-1.414 0.626-0.59 0.043-1.103-0.147-1.54-0.569zM228.327 225.875l11.432 11.051-2.249 2.326-11.432-11.051z" fill="#374151" data-fill-palette-color="primary"></path><path d="M229.468 201.975l24.393 16.688-1.822 2.663-24.393-16.688z" fill="#374151" data-fill-palette-color="primary"></path><path d="M255.684 198.884v0c-1.089-0.426-2.031-1.031-2.829-1.816-0.789-0.789-1.406-1.676-1.853-2.662-0.444-0.991-0.695-2.036-0.753-3.135-0.064-1.101 0.112-2.183 0.528-3.247v0c0.277-0.709 0.622-1.324 1.034-1.844 0.405-0.523 0.821-0.945 1.248-1.265 0.429-0.327 0.834-0.563 1.213-0.709 0.388-0.149 0.707-0.229 0.954-0.239v0l-2.035-0.958 1.139-2.911 14.807 5.793-1.194 3.051-1.875-0.734c0.14 0.191 0.291 0.465 0.453 0.823 0.159 0.363 0.269 0.797 0.33 1.302 0.063 0.498 0.065 1.062 0.005 1.691-0.054 0.632-0.224 1.315-0.511 2.048v0c-0.443 1.132-1.057 2.097-1.842 2.894-0.792 0.795-1.669 1.398-2.634 1.81-0.964 0.412-1.983 0.633-3.057 0.665-1.071 0.025-2.114-0.16-3.129-0.557zM256.696 195.773v0c0.684 0.268 1.37 0.393 2.059 0.375 0.688-0.018 1.327-0.155 1.915-0.412 0.591-0.264 1.126-0.642 1.606-1.136 0.478-0.487 0.855-1.086 1.133-1.795v0c0.277-0.709 0.41-1.414 0.397-2.114-0.013-0.701-0.152-1.354-0.417-1.96-0.265-0.606-0.641-1.14-1.126-1.603-0.486-0.463-1.071-0.828-1.756-1.095v0c-0.684-0.268-1.362-0.397-2.032-0.387-0.671 0.01-1.306 0.149-1.906 0.416-0.593 0.27-1.132 0.658-1.617 1.164-0.485 0.506-0.866 1.114-1.144 1.823v0c-0.277 0.709-0.406 1.405-0.386 2.087 0.018 0.688 0.154 1.33 0.409 1.924 0.264 0.591 0.636 1.124 1.117 1.599 0.481 0.475 1.064 0.847 1.748 1.114z" fill="#374151" data-fill-palette-color="primary"></path><path d="M3.663 145.362c0-6.075 4.925-10.999 10.999-11 6.075 0 10.999 4.925 11 11 0 6.075-4.925 10.999-11 10.999-6.075 0-10.999-4.925-10.999-10.999z" fill="#374151" data-fill-palette-color="primary"></path><path d="M256.143 145.362c0-6.075 4.925-10.999 11-11 6.075 0 10.999 4.925 10.999 11 0 6.075-4.925 10.999-10.999 10.999-6.075 0-10.999-4.925-11-10.999z" fill="#374151" data-fill-palette-color="primary"></path></g></svg></g></svg></g></svg></g></svg></g><defs></defs></svg><rect width="280" height="280" fill="none" stroke="none" visibility="hidden"></rect></g></svg></g></svg>